<?xml version="1.0" standalone="no"?>
<!DOCTYPE svg PUBLIC "-//W3C//DTD SVG 20010904//EN"
 "http://www.w3.org/TR/2001/REC-SVG-20010904/DTD/svg10.dtd">
<svg version="1.0" xmlns="http://www.w3.org/2000/svg"
 width="2100.000000pt" height="2100.000000pt" viewBox="0 0 2100.000000 2100.000000"
 preserveAspectRatio="xMidYMid meet">
<metadata>
Created by potrace 1.11, written by Peter Selinger 2001-2013
</metadata>
<g transform="translate(0.000000,2100.000000) scale(0.100000,-0.100000)"
fill="#000000" stroke="none">
<path d="M2883 19732 c-258 -92 -532 -511 -602 -923 -49 -283 -67 -778 -41
-1104 76 -964 380 -1974 921 -3065 219 -442 391 -742 640 -1115 318 -476 604
-827 1016 -1246 183 -186 228 -237 250 -285 39 -86 36 -161 -16 -349 -22 -82
-75 -319 -116 -525 -42 -206 -84 -415 -95 -465 -32 -149 -44 -271 -43 -455 1
-334 65 -597 221 -905 149 -294 363 -569 686 -882 173 -168 278 -252 710 -572
293 -216 323 -245 347 -336 22 -79 7 -148 -66 -305 -127 -274 -328 -796 -408
-1061 -145 -479 -152 -1103 -16 -1470 17 -46 53 -147 80 -224 106 -304 90
-459 -92 -882 -98 -230 -139 -352 -246 -738 -166 -602 -181 -676 -190 -935
-12 -342 46 -602 200 -905 65 -127 80 -149 162 -231 135 -137 293 -231 515
-305 189 -63 283 -80 475 -86 197 -6 329 7 695 67 599 99 635 100 786 33 196
-89 351 -120 539 -109 169 9 295 42 505 132 54 23 79 28 150 28 78 0 94 -4
195 -46 145 -61 230 -86 345 -103 233 -36 423 -6 660 101 84 39 86 39 210 38
102 0 181 -9 435 -51 389 -65 493 -79 681 -93 369 -27 676 47 905 219 85 65
195 180 257 272 63 94 105 136 162 162 40 18 74 21 325 28 517 15 862 67 1245
191 489 158 871 393 1217 751 428 444 725 1056 872 1802 70 353 100 669 108
1125 18 1076 -135 1983 -462 2735 -137 317 -300 592 -511 865 -102 132 -379
415 -504 514 -217 173 -579 380 -712 408 -99 21 -189 -26 -224 -117 -23 -61
-15 -101 56 -265 76 -178 124 -324 158 -480 24 -116 26 -143 26 -360 0 -206
-2 -248 -22 -337 -35 -162 -89 -314 -167 -472 -119 -239 -251 -422 -506 -703
-383 -422 -614 -824 -718 -1248 -46 -187 -56 -283 -55 -535 1 -238 12 -368 64
-785 92 -734 98 -957 34 -1208 -30 -118 -150 -370 -168 -351 -2 2 -40 137 -85
299 -94 346 -134 467 -230 689 -196 454 -205 606 -56 993 104 270 138 461 138
773 1 284 -26 502 -94 754 -56 211 -264 766 -394 1051 -32 69 -68 150 -81 180
-40 93 -29 213 26 291 12 16 198 161 414 323 382 286 545 423 727 612 578 604
821 1169 778 1810 -10 153 -26 259 -69 444 -15 69 -51 244 -80 390 -28 146
-72 344 -97 440 -35 132 -46 193 -46 250 -1 118 15 142 253 385 292 298 462
490 680 770 806 1036 1494 2485 1774 3738 119 531 162 935 153 1430 -9 518
-53 757 -192 1042 -69 140 -143 247 -236 341 -125 127 -221 174 -352 174 -119
0 -227 -47 -339 -148 -73 -65 -649 -702 -1143 -1262 -829 -941 -1574 -1540
-2495 -2004 -1120 -565 -2320 -796 -3485 -670 -1414 153 -2760 783 -3923 1837
-233 212 -535 528 -973 1022 -594 669 -937 1044 -1006 1101 -32 26 -92 63
-133 83 -67 32 -85 36 -165 39 -67 2 -103 -2 -142 -16z m421 -734 c19 -18 150
-166 292 -328 710 -811 1203 -1352 1426 -1561 737 -693 1502 -1181 2388 -1521
1005 -387 2119 -528 3205 -407 1206 134 2375 601 3370 1343 577 431 894 753
2138 2167 157 180 294 329 303 333 57 22 126 -12 140 -70 11 -43 -3 -220 -25
-332 -78 -380 -221 -621 -730 -1232 -1031 -1236 -2131 -2232 -2831 -2560 -160
-76 -173 -84 -205 -136 -26 -42 -30 -56 -30 -123 0 -133 58 -191 191 -191 69
0 78 3 215 71 479 236 991 621 1584 1189 830 795 1724 1910 2107 2626 53 101
75 122 108 104 30 -16 34 -49 34 -240 0 -178 -5 -238 -50 -555 -133 -941 -412
-1845 -844 -2732 -367 -755 -734 -1308 -1320 -1993 -228 -267 -288 -320 -361
-320 -71 0 -123 72 -208 290 -86 222 -173 291 -286 227 -137 -77 -124 -253 59
-813 91 -280 179 -597 285 -1019 127 -512 149 -643 158 -941 12 -422 -41 -633
-235 -924 -269 -403 -776 -880 -1307 -1226 -171 -111 -1171 -624 -1440 -738
-530 -225 -1029 -328 -1585 -328 -729 -1 -1297 156 -2125 587 -132 69 -359
186 -505 259 -483 245 -853 517 -1271 935 -209 210 -319 340 -434 516 -182
276 -224 414 -232 775 -8 357 18 537 167 1127 99 393 198 745 284 1009 107
325 127 410 132 554 5 108 3 130 -13 160 -31 60 -116 101 -178 86 -64 -16
-124 -102 -189 -273 -114 -299 -195 -334 -367 -156 -162 166 -518 600 -720
878 -659 905 -1184 2042 -1463 3172 -139 562 -236 1225 -223 1516 6 129 14
160 42 171 28 10 44 -5 86 -83 386 -708 1160 -1694 1954 -2486 640 -638 1245
-1107 1754 -1357 115 -57 133 -63 201 -66 141 -6 205 53 205 193 0 58 -5 78
-27 115 -31 53 -51 67 -178 123 -594 266 -1504 1046 -2447 2097 -361 402 -721
844 -887 1090 -155 228 -260 531 -285 815 -11 122 -7 147 29 185 40 43 98 42
144 -2z m12523 -10445 c124 -136 198 -224 285 -339 460 -609 766 -1389 892
-2274 50 -349 60 -505 61 -950 0 -425 -4 -495 -46 -790 -170 -1198 -724 -2045
-1592 -2431 -374 -167 -794 -251 -1262 -253 -181 -1 -217 2 -258 17 -74 29
-77 38 -77 218 0 193 9 228 82 312 126 145 201 258 282 427 194 403 238 855
151 1535 -32 251 -44 410 -52 700 -7 260 0 336 42 505 75 296 223 615 439 945
40 61 176 247 302 415 127 168 265 361 308 430 102 164 209 383 241 495 72
250 101 629 75 985 -9 125 -5 150 25 150 7 0 52 -44 102 -97z m-8087 -1423
c47 -15 180 -69 295 -120 772 -339 1220 -450 1815 -450 595 0 1038 110 1824
454 256 112 364 149 442 150 210 3 546 -339 743 -756 265 -559 301 -1198 103
-1802 -64 -197 -251 -562 -750 -1466 -444 -805 -788 -1400 -973 -1687 -163
-253 -215 -321 -349 -454 -101 -100 -129 -122 -205 -160 -85 -42 -92 -44 -179
-44 -83 0 -97 3 -161 34 -173 85 -235 212 -235 486 0 266 84 964 246 2060 80
538 80 569 1 653 -102 107 -267 26 -306 -150 -6 -25 -15 -107 -21 -184 -20
-261 -141 -1231 -156 -1255 -7 -12 -41 -12 -49 1 -19 30 -141 1029 -160 1305
-9 132 -36 216 -88 269 -77 80 -171 83 -240 7 -41 -45 -57 -93 -57 -168 0 -29
29 -249 64 -490 203 -1377 268 -1986 237 -2203 -18 -123 -45 -186 -105 -245
-111 -109 -270 -152 -399 -107 -173 61 -378 270 -595 607 -84 129 -368 605
-434 725 -14 25 -81 144 -150 265 -383 674 -858 1545 -1028 1885 -125 249
-193 466 -237 750 -25 160 -25 520 0 680 40 259 107 481 213 699 173 360 436
655 649 730 73 26 124 22 245 -19z m-977 -3569 c19 -8 55 -69 162 -278 388
-757 758 -1389 1151 -1971 68 -100 126 -193 130 -206 7 -29 -18 -86 -45 -103
-49 -31 -314 -83 -521 -104 -170 -17 -558 -17 -650 0 -493 90 -730 498 -681
1176 26 350 95 668 236 1090 93 278 135 377 165 392 30 15 24 15 53 4z m6227
-6 c34 -18 57 -73 170 -415 120 -361 189 -657 220 -945 16 -145 13 -451 -5
-568 -56 -369 -260 -619 -576 -707 -229 -64 -798 -41 -1138 45 -56 14 -113 33
-126 41 -29 19 -49 66 -41 98 3 14 75 127 159 253 401 599 797 1284 1135 1960
100 198 135 253 165 253 4 0 21 -7 37 -15z"/>
<path d="M6553 12229 c-21 -21 -15 -59 31 -216 124 -411 208 -607 333 -771
133 -175 310 -285 538 -338 71 -17 120 -19 420 -17 187 1 387 5 444 9 97 6
107 8 133 34 37 38 37 79 -3 180 -100 261 -271 513 -456 675 -210 184 -492
322 -794 389 -222 49 -620 83 -646 55z"/>
<path d="M12925 12233 c-433 -28 -811 -148 -1092 -346 -115 -81 -281 -248
-363 -365 -120 -171 -250 -445 -250 -525 0 -95 7 -97 404 -109 398 -12 529 -7
656 26 344 87 559 313 723 756 45 120 145 449 154 503 10 67 -19 74 -232 60z"/>
<path d="M7386 9518 c-31 -47 -156 -316 -156 -335 0 -11 9 -28 19 -37 10 -9
126 -51 257 -92 131 -41 240 -77 243 -80 2 -2 -28 -37 -67 -78 -61 -63 -72
-79 -72 -108 0 -22 7 -42 20 -53 17 -16 1050 -319 1058 -310 4 3 -31 23 -430
245 -257 143 -276 157 -260 199 4 10 46 52 95 95 69 61 87 83 87 104 0 15 -4
33 -9 40 -16 25 -715 432 -743 432 -18 0 -33 -8 -42 -22z"/>
<path d="M11886 9328 c-367 -216 -390 -234 -367 -277 6 -10 48 -52 95 -95 91
-83 106 -115 69 -148 -10 -8 -158 -92 -330 -187 -171 -95 -319 -179 -330 -187
-17 -14 -17 -15 5 -9 434 120 1027 297 1042 310 12 11 20 31 20 51 0 26 -13
46 -71 108 -40 42 -70 79 -67 81 3 3 112 39 244 80 237 74 274 92 274 131 0
19 -160 337 -174 346 -6 4 -20 8 -32 8 -11 0 -181 -95 -378 -212z"/>
<path d="M9733 8656 c-34 -8 -95 -26 -135 -39 -40 -13 -89 -28 -108 -31 -81
-17 -162 -49 -190 -77 -41 -41 -46 -82 -20 -160 63 -189 243 -379 427 -449 73
-28 185 -32 263 -8 119 37 262 146 345 262 65 91 115 203 117 258 1 91 -44
128 -202 168 -47 12 -128 35 -180 51 -114 36 -227 45 -317 25z"/>
</g>
</svg>
