<?xml version="1.0" standalone="no"?>
<!DOCTYPE svg PUBLIC "-//W3C//DTD SVG 20010904//EN"
 "http://www.w3.org/TR/2001/REC-SVG-20010904/DTD/svg10.dtd">
<svg version="1.0" xmlns="http://www.w3.org/2000/svg"
 width="640.000000pt" height="640.000000pt" viewBox="0 0 640.000000 640.000000"
 preserveAspectRatio="xMidYMid meet">
<metadata>
Created by potrace 1.11, written by Peter Selinger 2001-2013
</metadata>
<g transform="translate(0.000000,640.000000) scale(0.100000,-0.100000)"
fill="#000000" stroke="none">
<path d="M3311 6218 c-1 -10 -7 -15 -13 -13 -27 10 -208 10 -212 0 -3 -5 -5
-4 -5 4 -1 11 -5 10 -17 -5 -8 -10 -13 -13 -9 -6 8 15 0 15 -27 1 -18 -10 -20
-9 -14 7 6 15 1 13 -19 -6 -15 -14 -26 -20 -25 -15 6 29 -1 38 -15 19 -11 -14
-14 -15 -15 -4 0 13 -1 13 -10 0 -8 -13 -10 -13 -10 -1 0 11 -4 9 -15 -5 -9
-12 -13 -13 -10 -4 4 12 -2 16 -24 15 -19 0 -26 -3 -21 -11 6 -7 -1 -9 -23 -8
-18 1 -38 -2 -44 -8 -9 -7 -13 -7 -13 3 0 8 -6 5 -15 -7 -13 -16 -14 -16 -9
-1 5 13 2 16 -10 11 -9 -3 -14 -10 -11 -14 3 -4 -11 -7 -30 -5 -22 2 -35 -1
-35 -8 0 -8 -3 -7 -9 1 -11 18 -22 17 -32 -1 -5 -9 -18 -13 -34 -9 -17 3 -25
0 -25 -9 0 -11 -2 -11 -10 1 -8 12 -10 12 -10 1 0 -10 -3 -11 -14 -2 -11 10
-16 9 -24 -4 -11 -20 -22 -21 -33 -3 -7 10 -9 10 -9 -2 0 -9 -10 -17 -22 -18
-48 -5 -63 -10 -60 -21 2 -9 -3 -9 -18 -1 -16 9 -20 8 -20 -7 0 -15 -2 -15
-16 3 -8 10 -13 13 -9 7 4 -8 0 -13 -9 -13 -9 0 -16 -5 -16 -11 0 -8 -6 -7
-17 2 -10 8 -14 9 -10 2 4 -6 3 -14 -3 -18 -5 -3 -10 -1 -10 5 0 6 -5 8 -10 5
-6 -4 -8 -10 -5 -15 6 -9 -14 -8 -31 3 -7 4 -11 0 -10 -10 0 -9 -6 -18 -14
-20 -12 -4 -12 -3 -2 5 11 7 11 10 -3 15 -9 4 -14 3 -11 -2 9 -14 -20 -32 -39
-24 -14 5 -16 3 -10 -7 6 -10 4 -12 -8 -7 -10 3 -17 2 -17 -4 0 -6 -4 -7 -10
-4 -5 3 -10 2 -10 -4 0 -6 -7 -7 -17 -4 -11 4 -14 3 -9 -6 5 -8 0 -10 -18 -7
-15 3 -24 1 -21 -5 6 -8 -8 -13 -27 -10 -5 0 -8 -7 -8 -17 0 -14 -2 -15 -10
-2 -8 13 -14 8 -12 -11 1 -3 -12 -5 -28 -4 -20 1 -27 -2 -23 -12 4 -9 0 -11
-13 -6 -13 5 -15 3 -9 -8 7 -11 5 -11 -10 1 -10 8 -16 10 -12 4 3 -6 -6 -17
-21 -25 -15 -8 -31 -20 -35 -27 -6 -9 -13 -10 -20 -3 -8 6 -19 3 -34 -9 -12
-9 -20 -20 -17 -22 2 -3 -6 -4 -20 -3 -18 2 -23 -1 -19 -11 5 -12 -19 -20 -49
-15 -4 0 -10 -9 -13 -20 -4 -13 -12 -18 -21 -15 -10 4 -12 2 -8 -6 5 -8 2 -9
-10 -5 -9 4 -15 3 -13 -1 3 -4 -1 -13 -9 -20 -11 -10 -14 -10 -14 0 0 7 -8 -2
-17 -20 -8 -18 -18 -30 -21 -28 -3 3 1 12 8 21 19 23 3 18 -21 -7 -12 -13 -19
-16 -15 -8 4 8 1 6 -8 -4 -8 -10 -13 -23 -9 -28 3 -6 -4 -5 -16 1 -18 10 -20
9 -14 -5 4 -11 2 -15 -4 -11 -6 4 -14 0 -17 -9 -3 -8 -10 -13 -15 -10 -5 3
-12 -1 -15 -10 -3 -8 -10 -12 -16 -9 -6 3 -7 -1 -4 -9 4 -12 0 -16 -16 -16
-14 0 -19 -4 -14 -12 5 -8 2 -9 -9 -5 -9 3 -19 1 -23 -5 -4 -7 -3 -8 4 -4 7 4
12 2 12 -3 0 -6 -7 -11 -15 -11 -8 0 -15 -5 -15 -11 0 -5 -4 -7 -10 -4 -9 6
-14 -7 -11 -27 0 -4 -6 -5 -14 -1 -19 7 -55 -24 -55 -46 0 -14 -2 -14 -10 -1
-8 13 -10 13 -10 -1 0 -9 -7 -20 -16 -23 -10 -4 -14 -12 -10 -22 5 -14 4 -14
-7 -5 -11 9 -17 7 -28 -6 -13 -17 -13 -17 6 -3 20 14 20 14 1 -7 -10 -13 -23
-20 -28 -17 -4 3 -7 0 -6 -8 2 -7 -5 -12 -14 -12 -14 1 -16 -2 -7 -18 8 -14 8
-18 0 -14 -5 4 -21 -4 -33 -16 -13 -13 -27 -22 -31 -20 -5 1 -6 -2 -3 -7 4 -5
-3 -16 -15 -25 -12 -8 -18 -19 -15 -25 5 -7 1 -8 -10 -4 -12 4 -15 3 -10 -5 4
-7 2 -12 -4 -12 -6 0 -8 -5 -4 -12 5 -8 2 -9 -9 -5 -11 4 -17 1 -17 -9 0 -9
-5 -12 -12 -8 -7 4 -8 3 -4 -4 4 -7 -9 -27 -29 -47 -19 -20 -32 -41 -29 -47 4
-7 2 -8 -4 -4 -7 4 -12 2 -12 -4 0 -17 -36 -61 -44 -53 -3 3 -7 1 -7 -5 -4
-32 -6 -37 -17 -34 -7 1 -12 -5 -12 -13 0 -9 -7 -18 -15 -21 -8 -4 -12 -10 -9
-15 3 -5 0 -9 -5 -9 -6 0 -11 -7 -11 -16 0 -9 -5 -12 -12 -8 -7 5 -9 2 -6 -8
4 -8 -2 -21 -13 -29 -10 -7 -19 -17 -19 -22 0 -22 -33 -76 -43 -70 -5 3 -7 1
-4 -4 4 -6 -2 -18 -13 -28 -11 -10 -17 -21 -15 -25 8 -13 -6 -40 -18 -33 -5 3
-7 1 -3 -5 3 -6 1 -14 -5 -17 -5 -4 -8 -13 -5 -21 3 -8 0 -13 -7 -11 -7 1 -11
-6 -11 -15 1 -10 -2 -18 -7 -18 -5 0 -9 -7 -9 -16 0 -9 -5 -12 -12 -8 -10 6
-10 4 0 -8 10 -13 10 -18 1 -24 -8 -4 -9 -3 -5 4 4 7 5 12 2 12 -3 0 -10 -10
-17 -21 -9 -17 -8 -20 3 -13 11 6 11 5 -1 -9 -7 -9 -17 -15 -21 -12 -4 2 -5
-7 -2 -20 3 -16 -1 -27 -11 -31 -9 -3 -14 -14 -12 -25 2 -10 0 -19 -6 -19 -5
0 -9 -7 -9 -15 0 -8 -4 -15 -10 -15 -5 0 -7 -6 -4 -14 3 -8 0 -17 -5 -21 -6
-3 -9 -11 -6 -16 4 -5 1 -9 -5 -9 -7 0 -10 -7 -6 -15 3 -8 1 -15 -4 -15 -5 0
-7 -7 -4 -15 4 -8 1 -15 -5 -15 -6 0 -11 -9 -11 -20 0 -11 -4 -20 -8 -20 -7 0
-11 -18 -12 -63 -1 -10 -8 -21 -16 -24 -7 -3 -11 -9 -8 -14 3 -6 0 -16 -6 -24
-10 -12 -10 -15 1 -15 12 0 12 -2 0 -9 -8 -5 -11 -16 -8 -26 4 -9 3 -13 -2
-10 -5 3 -12 1 -16 -5 -3 -5 0 -10 7 -10 10 0 10 -2 -1 -9 -7 -5 -10 -14 -7
-20 4 -6 3 -11 -2 -11 -5 0 -8 -11 -7 -25 2 -14 -1 -25 -5 -25 -5 0 -7 -9 -5
-20 2 -11 -3 -24 -13 -30 -10 -6 -12 -10 -4 -10 9 0 10 -5 4 -17 -5 -10 -8
-26 -7 -35 2 -10 -1 -18 -5 -18 -5 0 -7 -9 -5 -20 2 -11 -2 -20 -8 -20 -7 0
-6 -4 3 -10 8 -5 10 -10 4 -10 -7 0 -10 -13 -9 -30 1 -16 -1 -30 -6 -30 -5 0
-9 -5 -9 -11 0 -5 6 -7 13 -3 6 4 4 -1 -5 -12 -14 -16 -15 -23 -5 -34 10 -10
9 -11 -1 -5 -16 8 -13 -26 3 -37 7 -5 6 -8 -1 -8 -6 0 -10 -19 -9 -45 0 -25
-3 -45 -8 -45 -5 0 -5 -6 1 -13 7 -8 7 -18 2 -27 -5 -8 -6 -18 -3 -22 2 -5 -1
-15 -7 -23 -10 -12 -10 -15 1 -15 12 0 12 -2 1 -9 -15 -9 -15 -17 0 -45 7 -13
7 -16 -2 -11 -14 9 -10 -26 5 -37 7 -5 7 -10 0 -15 -14 -11 -17 -40 -5 -48 7
-4 7 -13 -1 -27 -9 -16 -8 -23 2 -29 8 -5 9 -9 3 -9 -14 0 -14 -30 0 -30 6 0
5 -4 -3 -9 -9 -6 -10 -11 -3 -15 6 -4 9 -13 5 -21 -3 -9 1 -23 8 -32 11 -13
11 -17 1 -20 -6 -3 -9 -9 -6 -14 3 -6 0 -16 -6 -24 -10 -12 -9 -16 3 -21 8 -3
13 -13 10 -24 -3 -10 0 -21 6 -24 7 -5 8 -14 2 -24 -4 -9 -7 -26 -5 -37 11
-64 16 -92 17 -112 0 -13 5 -23 10 -23 5 0 5 -6 -1 -13 -7 -8 -6 -17 3 -30 7
-10 11 -27 8 -37 -3 -11 -1 -20 4 -20 6 0 9 -16 8 -34 -1 -21 3 -32 9 -29 5 4
7 -1 3 -10 -4 -10 -1 -17 5 -17 9 0 9 -3 1 -11 -9 -9 -8 -15 3 -26 12 -12 12
-18 3 -30 -10 -11 -10 -13 1 -11 11 3 15 -9 22 -59 1 -7 4 -13 7 -13 4 0 8
-12 9 -27 1 -15 8 -30 15 -35 6 -4 8 -8 3 -8 -4 0 -1 -11 8 -25 12 -18 13 -25
4 -25 -8 -1 -7 -5 4 -14 10 -7 15 -15 13 -18 -3 -3 2 -21 10 -41 8 -21 12 -37
8 -37 -5 0 -2 -4 4 -8 7 -5 14 -20 15 -34 1 -15 6 -24 12 -21 5 4 7 -3 3 -16
-4 -17 -3 -20 7 -11 10 8 12 5 8 -15 -2 -15 0 -25 7 -25 7 0 10 -4 7 -9 -4 -5
-1 -11 4 -13 6 -2 12 -13 13 -25 0 -12 4 -20 8 -17 8 4 44 -75 42 -93 0 -7 3
-10 8 -7 5 3 9 -2 9 -11 0 -9 7 -23 15 -31 8 -9 15 -24 15 -35 0 -13 7 -19 23
-20 12 0 16 -3 10 -6 -7 -2 -13 -9 -13 -15 0 -6 7 -8 14 -5 10 4 13 1 9 -9 -3
-7 0 -14 7 -14 6 0 9 -4 5 -10 -3 -5 3 -18 13 -28 10 -10 16 -24 14 -32 -3 -8
0 -10 8 -5 10 6 12 4 7 -8 -3 -9 -1 -19 5 -23 7 -5 8 -2 3 6 -6 9 -4 11 4 6 7
-5 10 -14 7 -22 -7 -17 10 -19 18 -1 3 6 4 3 3 -8 -1 -13 3 -19 12 -17 11 2
12 0 3 -11 -10 -11 -9 -17 5 -28 17 -13 17 -13 3 6 -14 18 -14 19 2 7 9 -8 14
-20 11 -28 -3 -8 0 -14 6 -14 6 0 11 5 11 12 0 6 3 8 6 5 4 -4 1 -15 -7 -24
-7 -10 -10 -15 -5 -11 17 14 43 -11 41 -37 -2 -14 1 -25 7 -25 6 0 8 7 4 15
-10 26 3 16 19 -15 9 -18 21 -28 28 -25 7 4 3 -1 -8 -11 -15 -13 -16 -15 -3
-11 15 5 34 -17 30 -35 -1 -5 4 -7 11 -5 6 1 11 -4 9 -11 -2 -10 2 -10 18 -2
11 6 20 7 19 3 -4 -22 2 -34 14 -27 9 6 9 5 -1 -8 -10 -13 -9 -18 5 -29 11 -9
14 -10 9 -1 -4 6 -2 12 3 12 6 0 11 -5 11 -11 0 -5 6 -7 13 -3 9 6 9 4 0 -7
-17 -17 -17 -32 -1 -22 21 13 35 12 35 -3 0 -9 -4 -11 -12 -4 -8 7 -12 5 -12
-3 0 -8 6 -14 14 -15 7 -1 20 -3 28 -4 18 -2 21 -18 3 -18 -6 0 -8 -3 -5 -6 4
-4 14 -1 23 7 16 13 16 12 5 -9 -7 -13 -10 -26 -7 -30 3 -3 6 0 6 7 0 7 8 3
18 -9 l17 -21 27 20 c32 26 40 26 36 4 -1 -10 1 -24 5 -31 5 -7 4 -12 -2 -12
-11 0 -15 14 -11 39 1 12 -1 13 -14 2 -8 -7 -12 -20 -9 -29 4 -15 3 -15 -7 -2
-10 13 -11 13 -7 0 2 -8 12 -14 22 -12 10 2 14 -1 10 -7 -4 -7 0 -8 11 -4 11
4 15 2 11 -4 -4 -5 0 -19 8 -29 11 -15 15 -16 16 -4 1 8 1 19 0 23 -1 5 4 7
11 4 7 -2 12 -11 10 -21 -2 -9 2 -16 8 -16 6 0 8 -6 4 -12 -6 -10 -4 -10 8 0
13 10 17 10 21 -2 4 -9 -1 -17 -11 -19 -16 -4 -16 -5 0 -6 9 0 20 4 23 9 4 7
11 7 18 2 8 -6 18 -2 30 10 9 10 13 18 8 18 -6 0 -12 -4 -16 -9 -5 -9 -45 -11
-45 -3 0 2 5 12 10 22 9 17 8 18 -7 13 -16 -6 -17 -5 -3 12 8 10 10 16 4 12
-7 -4 -17 0 -24 8 -7 8 -9 15 -4 15 5 0 -2 7 -14 16 -13 9 -21 22 -18 30 3 8
0 13 -7 11 -7 -1 -11 7 -9 18 2 16 1 17 -7 5 -7 -9 -6 -19 0 -27 6 -7 7 -18 3
-24 -4 -7 -3 -9 4 -6 6 5 8 0 5 -13 -3 -12 0 -20 7 -20 7 0 10 7 6 15 -8 21 1
19 13 -3 8 -16 6 -18 -18 -18 -25 0 -28 3 -25 33 2 24 -3 36 -17 44 -11 5 -17
14 -14 19 3 5 1 11 -4 15 -6 3 -21 -11 -35 -32 -15 -21 -26 -32 -26 -25 0 6 0
14 0 17 0 3 3 6 8 7 16 4 39 43 35 58 -3 8 3 4 13 -10 10 -14 18 -28 16 -32
-1 -5 3 -8 8 -8 15 0 12 16 -5 30 -9 7 -14 19 -11 27 3 8 2 11 -3 8 -5 -3 -13
-1 -16 5 -5 8 -12 7 -22 -2 -14 -11 -15 -10 -10 7 4 11 2 27 -4 35 -9 13 -10
12 -5 -2 3 -10 0 -20 -6 -24 -7 -4 -8 -3 -4 4 4 7 3 12 -3 12 -6 0 -8 6 -5 14
3 8 -4 24 -15 35 -12 12 -21 26 -21 32 0 5 -4 8 -9 5 -5 -3 -12 1 -15 10 -4
10 -2 13 7 8 6 -4 3 2 -8 13 -11 11 -24 18 -29 15 -5 -3 -6 0 -2 6 3 6 -2 16
-11 22 -15 9 -14 10 7 5 22 -5 23 -4 7 5 -10 7 -25 9 -34 6 -13 -5 -14 -4 -3
9 9 11 9 15 1 15 -7 0 -9 5 -6 10 3 5 2 10 -4 10 -5 0 -12 -6 -15 -12 -4 -9
-5 -8 -5 2 2 33 -2 42 -16 37 -8 -4 -17 -1 -21 5 -4 6 -3 8 3 5 6 -4 13 0 17
8 5 13 -9 20 -35 17 -3 -1 -6 5 -6 13 0 8 7 11 16 8 10 -4 9 0 -4 10 -11 8
-24 13 -30 9 -5 -3 -3 3 5 13 9 11 10 16 2 11 -7 -4 -12 -2 -12 4 0 6 -5 8
-13 4 -9 -6 -9 -4 1 8 11 14 10 17 -5 22 -10 3 -27 20 -37 37 -11 18 -14 29
-7 25 6 -4 11 -2 11 4 0 6 -10 15 -22 20 -21 8 -22 9 -3 10 18 1 18 2 -3 13
-16 7 -22 17 -18 30 3 12 0 17 -8 14 -7 -3 -13 4 -14 16 0 12 -6 23 -12 25 -5
2 -10 10 -10 18 0 9 -4 13 -8 10 -4 -2 -9 5 -9 16 -1 12 -6 24 -11 27 -5 3 -8
14 -7 23 2 9 -3 22 -11 29 -8 6 -14 18 -14 25 0 8 -5 14 -11 14 -5 0 -8 4 -4
9 3 6 -3 14 -12 20 -10 6 -12 11 -5 11 6 0 12 5 12 11 0 5 -4 8 -9 4 -9 -5
-37 62 -33 78 1 4 -3 7 -9 7 -5 0 -7 5 -4 10 3 6 2 10 -4 10 -5 0 -8 11 -7 25
2 13 0 22 -4 20 -10 -6 -17 14 -15 42 1 12 -2 20 -6 17 -4 -2 -10 0 -14 6 -3
5 -1 10 6 10 9 0 9 3 0 14 -11 13 -22 46 -23 74 -1 6 -5 12 -10 12 -4 0 -8 14
-8 31 0 17 -4 28 -10 24 -9 -6 -15 22 -11 53 1 6 -2 12 -6 12 -8 0 -13 28 -16
78 0 6 -3 12 -7 12 -3 0 -5 15 -5 33 0 17 -6 41 -15 51 -13 17 -13 18 0 11 12
-7 13 -6 4 6 -6 8 -12 32 -13 54 -1 22 -6 41 -11 43 -5 2 -6 10 -3 18 3 8 -1
22 -8 31 -10 11 -10 14 -2 9 10 -5 12 5 7 46 -3 29 -7 71 -9 94 -1 23 -6 47
-10 54 -5 9 -4 11 3 6 7 -4 12 -2 12 3 0 6 -6 11 -12 11 -9 0 -8 4 2 10 8 5
10 10 4 10 -6 0 -10 12 -9 28 1 15 -2 33 -8 40 -5 7 -6 12 0 12 11 0 11 50 0
68 -5 6 -4 12 2 12 11 0 9 19 -3 39 -6 9 -5 12 1 8 6 -4 10 9 11 31 1 20 3 48
5 62 2 14 -2 31 -7 39 -8 11 -8 13 1 7 9 -5 12 1 9 23 -2 17 -1 31 3 31 3 0 6
24 5 53 0 28 4 58 10 66 9 12 8 13 -2 7 -12 -7 -12 -4 -2 14 6 12 10 31 7 41
-3 10 -2 19 3 19 4 0 6 11 5 25 -2 14 1 25 7 25 6 0 8 9 5 20 -3 11 -1 22 3
25 5 3 7 14 5 25 -2 11 0 20 5 20 5 0 7 9 5 20 -2 11 0 20 4 20 5 0 6 12 3 26
-3 18 -1 25 6 20 6 -4 9 3 7 19 -1 14 2 28 7 31 4 3 6 9 3 14 -3 5 -1 11 5 15
5 3 10 17 10 31 0 13 5 24 11 24 5 0 8 4 5 8 -3 5 1 21 9 36 8 14 10 24 5 21
-6 -3 -7 1 -4 9 3 9 10 16 16 16 5 0 6 5 3 11 -4 5 1 19 10 29 12 14 13 20 4
26 -8 5 -10 3 -4 -6 6 -9 4 -11 -4 -5 -9 5 -7 12 8 27 12 10 19 23 16 28 -3 5
-1 11 5 15 6 4 8 11 5 16 -4 5 -1 9 4 9 6 0 10 3 10 8 -1 4 0 10 1 15 5 15 8
27 9 43 0 9 6 12 13 8 8 -5 9 -2 5 9 -3 10 -2 17 3 17 6 0 10 9 10 21 0 11 4
17 10 14 6 -3 7 1 4 9 -4 10 -1 16 7 16 7 0 9 3 6 6 -4 4 3 20 14 35 11 16 18
33 15 38 -4 5 -1 11 4 13 6 2 12 12 14 21 1 10 9 23 17 28 8 5 10 9 6 9 -5 0
-1 7 8 16 9 9 14 23 11 30 -3 8 -2 13 2 11 4 -1 7 1 7 5 0 4 9 13 19 21 12 9
17 20 13 30 -4 10 -2 16 6 14 7 -1 11 4 9 11 -1 6 3 12 9 12 5 0 7 5 4 10 -3
6 -1 10 5 10 7 0 9 7 6 16 -3 8 -2 12 4 9 5 -3 15 7 22 22 7 15 16 31 21 34 5
4 14 17 21 30 7 13 19 23 26 21 11 -3 11 0 0 15 -8 10 -11 15 -6 11 9 -8 36
13 30 23 -2 4 7 18 20 32 13 14 21 28 18 31 -5 6 15 10 32 7 5 -1 3 5 -4 14
-11 14 -11 16 1 13 8 -2 13 3 11 10 -2 11 10 16 30 13 4 0 5 6 2 13 -3 8 3 19
15 26 12 6 21 17 21 26 0 8 7 17 15 20 8 4 15 14 15 23 0 14 2 14 10 1 9 -15
11 -13 14 13 1 6 9 11 19 11 9 -1 15 2 12 6 -3 5 5 16 17 24 12 9 18 16 14 16
-5 0 -19 -8 -30 -17 -16 -13 -15 -11 3 9 13 15 28 25 32 22 9 -5 13 11 10 30
-1 5 5 3 14 -4 9 -7 15 -9 14 -4 -4 22 2 35 13 28 8 -5 9 -2 4 11 -6 16 -4 16
11 4 9 -8 14 -9 10 -3 -3 6 1 20 9 30 9 10 12 12 8 4 -4 -8 7 0 24 18 19 20
36 31 43 26 8 -4 9 -3 5 4 -4 7 -1 12 10 12 14 0 14 3 4 15 -11 13 -10 14 4 9
10 -4 16 -1 16 7 0 7 3 10 6 6 10 -9 36 21 29 33 -4 6 -3 9 2 8 4 -1 18 3 29
10 12 6 25 8 29 4 5 -4 5 1 2 11 -4 11 -3 16 3 12 6 -3 10 -1 10 5 0 6 5 8 10
5 6 -3 10 -1 10 5 0 6 5 8 13 4 8 -6 8 -3 -1 9 -12 14 -11 16 7 12 14 -2 21 1
21 11 0 8 5 14 11 14 5 0 7 -6 3 -12 -4 -7 2 -5 14 6 12 10 19 24 15 30 -4 6
2 4 12 -4 17 -14 18 -13 12 3 -6 15 3 22 26 18 4 0 7 7 8 16 0 11 3 13 6 6 3
-10 8 -9 19 2 8 8 20 12 27 9 7 -2 23 7 35 21 13 14 28 23 34 19 7 -5 9 -2 5
9 -7 18 19 32 27 14 2 -7 5 -5 5 4 1 9 8 20 17 23 13 5 14 4 6 -7 -9 -10 -8
-14 3 -14 7 0 14 3 13 6 -2 20 4 29 20 27 9 0 16 4 15 10 -1 7 6 10 16 7 10
-3 22 1 26 8 6 8 4 10 -5 4 -9 -6 -11 -4 -5 4 5 9 10 10 18 2 8 -8 16 -3 30
17 18 26 18 26 11 2 -6 -23 -6 -23 10 -7 10 9 22 17 27 17 6 0 7 4 4 10 -3 6
1 7 9 4 9 -3 16 -1 16 5 0 6 5 11 11 11 5 0 7 -6 4 -12 -4 -7 0 -5 8 4 11 14
16 15 26 5 10 -9 11 -8 5 7 -5 13 -4 17 3 13 6 -4 19 0 27 9 9 8 16 11 16 5 0
-6 7 -8 15 -5 8 4 12 10 9 15 -3 5 -2 9 3 10 4 0 16 2 26 4 10 2 15 -1 11 -8
-3 -7 3 -1 14 12 15 18 21 21 26 10 5 -11 7 -11 12 -1 3 6 10 10 15 6 5 -3 9
0 9 6 0 6 5 8 11 5 5 -4 20 1 31 12 12 10 18 12 14 6 -4 -7 -2 -13 3 -13 6 0
11 7 11 16 0 8 5 12 10 9 6 -4 8 -12 4 -18 -3 -7 1 -4 10 7 8 10 19 15 25 11
6 -3 11 2 12 12 0 16 1 16 8 -1 7 -18 8 -18 14 -2 6 14 10 16 21 7 11 -10 19
-7 37 11 12 13 19 18 16 12 -4 -7 0 -14 8 -17 10 -4 12 -1 8 11 -3 9 -3 14 2
10 4 -4 15 -2 23 5 13 9 14 9 8 0 -4 -7 -2 -13 3 -13 6 0 11 5 11 11 0 5 5 7
10 4 6 -4 18 -1 27 7 12 9 15 9 9 1 -4 -7 -2 -13 3 -13 6 0 11 5 11 11 0 5 5
7 10 4 6 -3 10 2 11 12 0 10 3 13 6 6 2 -7 11 -13 19 -13 8 0 14 6 14 13 0 8
3 9 8 1 8 -12 40 -12 60 0 7 4 12 2 12 -6 1 -8 4 -7 10 4 6 10 18 14 30 11 13
-3 20 0 20 8 0 11 2 11 8 1 9 -14 42 -6 42 10 0 5 5 6 10 3 6 -4 8 -11 5 -16
-3 -5 1 -6 9 -3 9 3 14 9 11 13 -2 4 2 8 10 8 8 0 12 -3 11 -6 -2 -3 7 -7 20
-7 13 -1 22 1 19 5 -2 4 2 8 10 8 8 0 12 -3 10 -7 -8 -13 61 -4 73 10 8 8 11
9 7 3 -3 -7 -1 -13 4 -13 6 0 11 6 11 13 0 9 3 8 9 -2 6 -9 11 -10 15 -2 11
17 26 13 27 -6 0 -15 2 -15 9 2 5 12 9 15 9 6 1 -12 4 -12 13 -3 16 16 31 15
22 0 -5 -9 -2 -9 9 1 14 11 17 11 17 0 0 -10 3 -10 12 -1 7 7 17 12 23 12 5 0
3 -5 -5 -10 -9 -6 -10 -10 -3 -10 6 0 14 4 17 9 4 5 14 8 24 6 9 -2 21 -4 25
-4 5 -1 5 -7 2 -13 -4 -7 1 -4 9 6 16 20 16 20 16 0 0 -12 3 -15 8 -7 5 7 13
9 21 3 8 -4 21 -6 29 -2 11 4 13 2 7 -9 -7 -11 -6 -12 6 -2 12 10 18 10 28 0
10 -9 15 -8 27 7 14 20 14 20 14 0 0 -16 2 -17 10 -4 5 8 10 10 10 3 0 -6 9
-9 22 -5 14 3 19 1 14 -6 -5 -8 -2 -10 8 -6 9 3 13 11 9 18 -3 6 3 3 14 -6 11
-10 24 -18 29 -18 5 0 2 5 -6 10 -9 6 -10 10 -3 10 6 0 18 -7 26 -15 11 -11
23 -12 47 -5 26 7 31 6 26 -5 -3 -9 0 -12 10 -8 8 3 22 -1 31 -8 15 -12 16
-12 10 3 -4 12 -2 15 9 11 7 -3 14 -10 14 -17 0 -7 3 -6 9 2 7 11 9 11 14 -1
3 -10 14 -13 31 -10 18 4 26 1 26 -8 0 -11 2 -11 10 1 6 10 10 11 10 3 0 -7 7
-13 16 -13 9 0 13 5 9 13 -4 6 -1 5 7 -3 7 -9 21 -14 31 -12 9 2 17 -2 17 -10
0 -10 3 -9 10 2 6 10 10 11 10 2 0 -6 3 -11 8 -11 4 1 14 1 22 0 13 -1 13 -2
0 -11 -8 -5 -10 -10 -4 -10 5 0 15 5 21 11 7 7 15 6 26 -5 12 -12 17 -13 20
-3 3 6 6 4 6 -7 1 -14 4 -16 15 -7 10 9 16 8 25 -3 7 -8 19 -12 27 -9 9 3 14
-2 15 -13 0 -11 3 -14 5 -7 3 7 12 9 20 6 7 -3 11 -10 8 -15 -4 -7 0 -6 12 0
21 11 46 -1 57 -28 3 -9 6 -10 6 -2 1 6 6 12 12 12 5 0 7 -4 4 -10 -3 -6 1 -7
9 -4 9 3 16 2 16 -2 0 -5 12 -10 26 -10 14 -1 31 -10 38 -20 8 -11 18 -14 26
-9 10 6 12 4 7 -8 -4 -12 0 -14 19 -11 24 4 58 -17 49 -30 -3 -3 -2 -4 2 -1 3
3 13 -1 21 -8 11 -8 14 -8 9 0 -4 6 -2 15 4 19 8 4 9 3 5 -4 -4 -8 0 -12 11
-12 15 0 16 -2 3 -10 -13 -8 -12 -10 3 -10 11 0 15 -4 11 -12 -4 -7 -3 -8 5
-4 6 4 9 12 6 17 -3 5 1 6 9 3 9 -3 13 -10 10 -15 -3 -5 1 -9 10 -9 8 0 16 -5
18 -11 2 -6 16 -11 31 -11 21 0 25 -3 17 -13 -7 -9 -7 -15 -1 -19 5 -4 12 -2
16 4 10 16 28 11 21 -6 -4 -12 -2 -15 9 -10 8 3 15 2 15 -2 0 -4 9 -13 21 -20
17 -11 20 -11 13 0 -6 10 -4 10 9 -1 9 -7 14 -18 10 -24 -4 -6 4 -8 20 -5 19
4 24 1 19 -10 -4 -11 -1 -14 11 -9 8 3 21 -1 27 -8 7 -8 17 -12 22 -9 5 3 12
-4 15 -16 3 -12 11 -19 19 -16 8 3 13 0 11 -7 -1 -7 4 -11 12 -9 9 2 11 -3 7
-14 -4 -12 -2 -15 9 -10 8 3 15 1 15 -4 0 -6 7 -10 15 -10 8 0 15 -8 15 -17 0
-15 2 -16 10 -3 8 13 10 12 10 -2 0 -10 7 -18 16 -18 10 0 14 -6 11 -14 -4
-10 0 -14 14 -11 11 2 19 -2 19 -9 0 -7 10 -21 23 -32 l22 -19 -20 25 -20 25
23 -19 c12 -11 22 -25 22 -33 0 -7 7 -13 16 -13 8 0 12 -4 9 -10 -3 -6 1 -7 9
-4 10 4 16 1 16 -9 0 -9 5 -19 12 -23 7 -5 9 -2 4 7 -4 8 5 1 20 -16 15 -16
32 -29 37 -27 6 2 4 -4 -3 -13 -11 -13 -10 -14 5 -9 13 5 16 4 11 -4 -4 -7 -1
-12 9 -12 11 0 15 -5 11 -16 -3 -8 -2 -12 4 -9 6 3 10 1 10 -5 0 -6 5 -8 10
-5 9 6 15 -8 11 -29 -1 -5 5 -6 13 -3 11 4 13 1 9 -10 -4 -11 -2 -14 5 -9 7 4
12 2 12 -4 0 -6 4 -9 9 -6 5 3 12 -1 15 -10 4 -10 2 -13 -7 -8 -10 6 -1 -6 32
-46 2 -3 1 3 -2 13 -4 11 -3 16 3 12 6 -3 10 -12 10 -20 0 -7 5 -15 10 -17 6
-2 12 -13 13 -25 1 -18 4 -20 16 -10 11 9 13 9 8 0 -4 -6 -1 -14 5 -16 10 -4
10 -6 0 -6 -10 -1 -10 -4 2 -16 8 -8 19 -15 25 -15 6 0 7 -7 4 -17 -4 -11 -3
-14 5 -9 7 4 14 -3 18 -19 3 -13 10 -23 14 -20 9 6 24 -25 21 -44 -1 -7 2 -10
8 -6 6 3 14 -2 18 -12 3 -10 15 -26 27 -36 12 -10 15 -16 9 -12 -9 4 -11 1 -7
-9 3 -9 10 -13 15 -10 5 3 9 -6 9 -20 0 -16 6 -26 15 -26 9 0 12 -6 8 -17 -4
-10 -2 -14 4 -10 14 9 24 -17 17 -40 -5 -15 -4 -16 5 -3 7 10 11 11 11 3 0
-26 28 -66 40 -58 4 2 7 -2 7 -10 0 -8 -4 -12 -9 -9 -4 3 -8 0 -8 -5 0 -6 6
-11 14 -11 7 0 20 -8 27 -17 13 -17 13 -17 -5 -3 -18 14 -19 14 -9 -5 6 -11
11 -24 11 -28 0 -5 4 -12 8 -15 4 -4 4 0 0 8 -4 8 0 6 8 -4 9 -11 16 -28 16
-39 0 -11 4 -15 12 -11 7 4 8 3 4 -4 -4 -6 4 -33 18 -60 14 -27 22 -52 19 -56
-4 -3 -1 -6 6 -6 7 0 9 -4 6 -10 -3 -5 -1 -10 5 -10 7 0 10 -7 7 -15 -4 -8 -1
-17 5 -21 7 -5 8 -2 3 7 -5 8 -4 11 0 7 5 -5 10 -20 11 -35 2 -14 9 -30 16
-34 10 -7 10 -9 -2 -9 -9 0 -11 -3 -4 -8 12 -8 28 -43 25 -56 -1 -4 6 -20 15
-33 11 -18 12 -23 3 -18 -10 6 -9 2 2 -11 8 -10 15 -26 14 -34 0 -8 3 -18 7
-21 4 -3 9 -17 10 -32 1 -15 6 -27 11 -27 5 0 7 -9 4 -19 -3 -11 2 -29 10 -40
10 -15 11 -21 2 -21 -8 0 -8 -4 1 -15 7 -8 10 -21 7 -30 -4 -8 -2 -17 4 -21 6
-3 8 -12 5 -20 -3 -8 -1 -14 5 -14 6 0 7 -4 4 -10 -3 -5 0 -10 7 -10 9 0 9 -3
-2 -10 -9 -6 -11 -10 -3 -10 7 0 10 -7 6 -17 -4 -9 -2 -14 3 -11 5 4 10 -17
11 -45 3 -62 7 -84 16 -93 4 -4 2 -13 -4 -21 -9 -10 -8 -13 1 -13 7 0 10 -8 7
-20 -3 -11 0 -20 6 -20 7 0 5 -5 -3 -10 -8 -5 -10 -10 -4 -10 6 0 10 -10 9
-22 -1 -13 1 -30 6 -39 4 -8 4 -21 -1 -29 -5 -8 -4 -22 1 -32 7 -12 6 -18 -1
-18 -7 0 -8 -6 -1 -19 6 -10 7 -22 3 -26 -9 -9 -9 -29 0 -36 4 -3 4 -20 -1
-37 -6 -20 -6 -30 0 -27 13 9 11 -9 -3 -23 -9 -9 -9 -12 0 -12 9 0 10 -5 3
-18 -6 -11 -6 -24 1 -36 8 -14 7 -17 -1 -12 -6 4 -11 3 -11 -3 0 -5 5 -13 10
-16 6 -3 7 -14 2 -23 -9 -21 -9 -43 1 -59 5 -7 4 -13 -2 -13 -5 0 -8 -11 -5
-25 3 -16 0 -25 -8 -25 -9 0 -8 -3 2 -10 13 -9 13 -10 0 -10 -13 0 -13 -1 0
-10 8 -5 10 -10 4 -10 -6 0 -10 -10 -10 -22 1 -13 -3 -29 -8 -37 -9 -12 -8
-13 4 -6 12 7 13 6 4 -6 -6 -8 -10 -24 -9 -36 1 -13 -3 -23 -9 -23 -6 0 -4 -5
4 -10 10 -7 11 -10 2 -10 -8 0 -11 -9 -8 -25 3 -13 1 -27 -3 -29 -4 -3 -8 -20
-9 -37 0 -18 -5 -35 -9 -38 -5 -3 -8 -19 -8 -36 1 -16 -6 -36 -14 -43 -9 -8
-11 -11 -4 -8 7 4 11 -1 10 -13 0 -11 -5 -17 -11 -14 -5 4 -7 -3 -4 -15 4 -12
2 -22 -3 -22 -5 0 -8 -3 -8 -8 1 -4 0 -9 -1 -12 -5 -15 -11 -47 -11 -62 0 -10
-5 -20 -10 -23 -5 -4 -7 -11 -4 -16 4 -5 2 -9 -4 -9 -5 0 -8 -8 -7 -17 2 -10
-1 -21 -6 -24 -5 -3 -10 -16 -11 -27 -1 -12 -5 -22 -10 -22 -5 0 -7 -9 -4 -19
3 -11 -1 -22 -9 -25 -7 -3 -11 -14 -9 -26 2 -12 -4 -29 -14 -39 -9 -9 -16 -22
-14 -28 2 -6 -3 -18 -12 -26 -17 -18 -20 -31 -4 -22 6 4 5 -2 -3 -14 -7 -12
-16 -21 -20 -21 -5 0 -8 -5 -8 -11 0 -5 6 -7 13 -3 6 4 4 -2 -7 -14 -10 -12
-24 -19 -30 -15 -6 4 -5 -1 3 -10 10 -13 10 -17 1 -17 -7 0 -10 -7 -6 -15 3
-8 1 -15 -4 -15 -5 0 -14 -18 -20 -40 -7 -25 -15 -38 -22 -34 -7 5 -9 -2 -6
-18 4 -21 2 -25 -16 -21 -16 4 -18 2 -7 -5 11 -8 10 -12 -5 -21 -11 -6 -16
-11 -11 -11 4 0 1 -10 -8 -23 -8 -13 -12 -27 -8 -31 5 -4 1 -6 -7 -4 -10 2
-14 -3 -12 -14 3 -17 -9 -23 -32 -19 -5 1 -4 -4 2 -12 9 -10 8 -18 -4 -33 -8
-10 -12 -13 -8 -5 5 9 3 12 -5 7 -6 -4 -9 -12 -6 -17 4 -5 1 -9 -4 -9 -6 0
-11 -12 -12 -27 0 -16 -3 -22 -6 -15 -2 6 -9 12 -14 12 -6 0 -5 -9 2 -21 8
-15 8 -19 0 -15 -10 6 -15 -6 -12 -26 0 -4 -5 -5 -13 -2 -8 3 -17 1 -21 -5 -3
-6 -2 -11 3 -11 5 0 9 -7 9 -15 0 -12 -3 -12 -16 -2 -9 7 -12 8 -8 1 4 -7 0
-17 -9 -24 -21 -19 -61 -75 -44 -65 9 6 11 4 6 -4 -5 -7 -15 -10 -25 -7 -12 5
-11 2 3 -9 18 -13 18 -15 2 -15 -9 0 -16 -6 -14 -14 2 -8 -1 -15 -7 -15 -5 0
-9 7 -7 15 2 8 -1 14 -7 14 -5 0 -8 -12 -6 -26 1 -17 -2 -24 -10 -20 -7 2 -15
-5 -18 -16 -4 -13 -10 -17 -18 -12 -8 4 -10 3 -5 -4 4 -7 2 -12 -5 -12 -7 0
-9 -3 -6 -6 4 -4 15 -1 24 7 16 12 17 12 6 -2 -10 -12 -10 -18 0 -28 10 -11 8
-11 -10 -2 -29 15 -34 14 -27 -4 4 -8 2 -15 -4 -15 -6 0 -12 5 -14 12 -3 7 -7
5 -11 -6 -4 -10 -3 -15 3 -11 6 3 10 1 10 -5 0 -6 5 -8 12 -4 7 4 8 3 4 -5 -4
-6 -11 -9 -16 -6 -5 3 -11 -4 -15 -15 -3 -11 -11 -20 -18 -20 -8 0 -8 3 1 12
15 15 16 28 2 28 -5 0 -9 -6 -7 -13 1 -6 -3 -11 -10 -10 -7 2 -10 -4 -7 -12 5
-11 2 -13 -11 -9 -11 5 -16 2 -15 -7 4 -26 0 -40 -10 -34 -6 4 -7 -1 -3 -11 6
-15 7 -15 20 2 7 10 12 23 9 30 -2 6 2 11 10 11 8 0 14 -2 14 -4 0 -9 -27 -49
-37 -56 -7 -4 -13 -13 -13 -19 0 -7 5 -6 15 2 11 9 15 9 15 1 0 -7 4 -10 10
-6 5 3 7 13 4 23 -5 14 -4 15 5 2 5 -8 13 -11 17 -7 4 3 2 12 -4 20 -8 9 -8
17 0 27 8 12 9 12 4 -2 -3 -10 -1 -20 5 -24 5 -3 7 -14 4 -25 -4 -11 -2 -19 5
-19 6 0 8 5 5 10 -3 6 1 10 10 10 15 0 15 1 0 16 -9 9 -14 19 -11 21 3 3 12
-2 21 -11 20 -19 26 -20 22 -3 -1 7 6 11 18 10 11 -1 14 0 7 3 -10 5 -10 9 0
22 8 10 9 13 1 9 -6 -4 -14 -3 -18 2 -3 6 3 8 15 6 11 -2 20 0 20 6 0 5 6 9
13 9 8 0 22 10 33 23 l19 22 -22 -19 c-13 -11 -23 -14 -23 -9 0 6 7 14 16 17
8 3 13 10 10 15 -3 5 4 7 16 4 19 -4 20 -3 8 6 -12 9 -11 11 8 11 15 0 21 4
16 12 -5 7 -2 9 9 5 12 -4 14 -2 10 10 -5 12 -2 15 10 10 21 -8 21 -3 1 18
-15 15 -14 15 9 10 15 -4 28 -2 32 6 5 8 4 10 -3 5 -7 -4 -12 -2 -12 3 0 6 5
11 11 11 5 0 8 4 5 9 -3 5 2 8 11 7 9 0 18 5 21 13 3 9 0 11 -8 6 -9 -6 -9 -3
-1 14 7 11 15 20 19 20 4 -1 14 -1 22 0 13 1 13 2 0 11 -13 8 -12 10 4 10 12
0 16 5 12 16 -4 11 1 18 14 21 18 5 25 22 21 47 -1 5 5 4 13 -4 9 -7 17 -10
17 -6 1 3 3 11 4 16 1 6 3 17 4 26 0 8 5 13 10 9 5 -3 12 4 16 15 4 11 11 18
16 15 5 -3 6 1 3 9 -4 9 -1 16 6 16 10 0 10 3 0 15 -11 13 -10 14 3 10 8 -4
18 -1 23 6 4 7 3 10 -4 5 -6 -3 -14 -2 -17 4 -4 6 -3 10 2 9 22 -4 32 2 27 16
-4 8 -1 15 5 15 6 0 11 7 11 15 0 9 7 18 15 21 8 4 15 12 15 20 0 8 4 14 10
14 5 0 9 3 9 8 -4 24 2 42 12 36 7 -4 10 -1 7 7 -3 8 4 22 15 32 11 9 15 17 8
17 -7 0 -9 5 -6 10 4 6 11 7 17 4 7 -4 8 -2 4 4 -4 6 0 22 9 35 8 13 12 27 8
30 -3 4 -1 7 5 7 7 0 12 9 12 20 0 11 7 23 15 26 8 4 13 10 10 14 -3 5 4 25
15 45 23 41 25 49 8 40 -7 -4 -2 2 11 13 18 15 21 21 10 25 -10 4 -9 6 4 6 10
1 15 6 12 11 -3 6 -3 16 2 23 8 12 13 32 15 55 1 6 5 12 10 12 5 0 6 5 3 10
-3 6 -1 10 5 10 6 0 8 5 4 11 -3 6 -2 14 3 18 16 9 28 55 13 46 -7 -4 -4 4 5
18 9 15 14 31 11 36 -4 5 2 14 11 20 10 6 13 11 6 11 -13 0 5 59 22 73 6 4 5
10 -3 16 -11 6 -11 11 2 24 12 11 13 17 3 20 -9 4 -9 6 0 6 7 1 10 8 7 16 -4
8 -2 15 3 15 6 0 9 14 8 30 -1 17 3 30 8 30 6 0 7 3 4 7 -4 3 -2 12 4 20 9 10
8 13 0 13 -7 0 -9 5 -5 11 3 6 8 32 11 57 2 25 8 52 14 58 7 8 6 14 -3 17 -9
4 -10 8 -2 14 6 4 11 23 10 41 -1 17 1 32 4 32 3 0 4 44 4 97 -1 59 3 104 10
112 8 11 8 13 -1 8 -14 -9 -15 31 -1 50 5 6 5 14 -2 18 -5 3 -10 11 -10 16 0
6 5 7 12 3 6 -4 8 -3 5 3 -4 6 -9 27 -12 47 -3 27 -1 35 8 29 9 -5 9 -3 1 8
-5 8 -9 41 -9 74 1 33 -3 68 -8 79 -7 14 -6 16 4 11 9 -6 10 -3 5 11 -5 10 -9
25 -9 32 0 6 -5 12 -11 12 -6 0 -5 4 2 9 17 11 17 21 0 32 -7 5 -8 9 -2 9 6 0
11 7 11 15 0 8 -5 11 -10 8 -6 -4 -8 0 -4 10 3 10 3 17 -1 17 -4 0 -7 18 -6
40 0 22 -2 40 -6 40 -4 0 -6 18 -6 39 1 22 -2 37 -7 34 -5 -3 -8 3 -6 13 1 11
-1 26 -4 34 -4 8 -8 29 -10 45 -2 17 -7 36 -11 43 -4 7 -5 16 -1 21 3 5 1 12
-5 16 -6 4 -8 11 -5 16 4 5 2 9 -2 9 -8 0 -12 19 -14 67 -1 13 -5 20 -10 17
-8 -4 -14 33 -10 59 0 4 -4 7 -9 7 -6 0 -10 9 -10 19 0 11 -5 23 -11 26 -6 4
-8 13 -5 20 2 7 -2 16 -11 19 -12 5 -13 9 -4 20 9 11 9 16 0 22 -8 5 -9 3 -4
-6 5 -8 4 -11 -3 -7 -5 4 -9 18 -7 32 1 14 -2 25 -6 25 -5 0 -9 7 -9 15 0 8
-5 15 -11 15 -8 0 -7 6 2 17 10 11 10 14 2 9 -9 -5 -13 0 -13 13 0 12 -5 21
-11 21 -5 0 -7 5 -4 10 3 6 1 10 -5 10 -6 0 -8 5 -5 10 3 6 1 10 -5 10 -6 0
-8 5 -5 10 3 6 2 10 -3 10 -6 0 -8 10 -5 23 4 18 3 19 -6 7 -9 -12 -11 -10
-11 11 0 14 -8 34 -18 45 -11 11 -18 27 -16 37 1 10 -4 17 -13 17 -9 0 -13 6
-9 15 3 9 0 15 -9 15 -9 0 -12 6 -9 15 4 8 1 15 -5 15 -6 0 -8 7 -4 17 4 11 3
14 -5 9 -8 -4 -12 0 -12 12 0 10 -9 28 -20 40 -11 12 -20 27 -20 34 -1 17 -25
49 -32 42 -3 -2 -8 2 -12 11 -4 11 -2 14 7 9 6 -4 -1 8 -18 26 -16 18 -23 30
-15 26 8 -4 4 1 -9 12 -15 12 -21 24 -16 32 5 8 4 11 -3 6 -6 -4 -18 6 -27 24
-9 17 -20 28 -25 25 -6 -4 -10 -1 -10 4 0 6 6 11 13 11 6 0 3 6 -8 12 -24 14
-45 40 -39 50 2 4 -1 10 -7 14 -8 5 -10 2 -5 -7 4 -8 1 -5 -8 5 -8 10 -13 23
-10 27 3 5 -3 6 -12 2 -11 -4 -15 -2 -11 4 4 6 0 14 -9 17 -9 4 -14 13 -10 21
4 10 -1 15 -14 15 -11 0 -19 5 -18 12 2 7 -4 12 -12 13 -9 0 -14 8 -12 18 2 9
-2 17 -8 17 -6 0 -8 4 -5 10 4 6 -1 7 -11 3 -12 -4 -15 -3 -10 5 4 8 0 12 -11
12 -12 0 -14 3 -6 8 8 5 2 12 -17 21 -16 7 -29 16 -29 19 4 24 -3 34 -18 28
-10 -4 -14 -4 -11 0 4 4 -6 19 -22 34 -16 15 -26 30 -23 34 3 3 -3 6 -15 6
-14 0 -26 11 -38 35 -9 19 -21 35 -27 35 -5 0 -2 -10 9 -22 18 -20 17 -20 -13
2 -33 24 -44 37 -20 24 6 -3 0 4 -14 17 -14 13 -24 31 -21 39 3 9 -2 7 -13 -5
-14 -17 -16 -18 -11 -2 3 11 2 16 -4 12 -6 -3 -13 1 -16 9 -3 9 -14 16 -23 16
-14 0 -14 2 -1 10 12 8 9 10 -13 10 -16 0 -26 4 -22 10 3 6 -1 10 -10 10 -10
0 -13 5 -9 12 5 8 0 9 -14 6 -12 -4 -25 -1 -29 4 -3 7 -1 8 5 4 7 -4 12 -2 12
3 0 6 -9 11 -20 11 -11 0 -20 7 -20 16 0 8 -4 12 -10 9 -5 -3 -10 -1 -10 4 0
6 -5 11 -11 11 -6 0 -17 7 -26 15 -8 8 -20 12 -26 8 -6 -4 -8 0 -4 10 3 9 1
19 -5 23 -6 4 -8 3 -5 -3 4 -6 0 -13 -8 -16 -9 -4 -12 -1 -9 7 3 7 -2 16 -11
20 -11 4 -14 2 -10 -7 4 -6 -2 -3 -12 9 -10 11 -25 18 -32 16 -9 -3 -12 0 -8
11 4 11 0 14 -16 10 -18 -4 -19 -3 -7 6 12 8 8 11 -17 11 -18 0 -33 4 -33 9 0
5 -9 12 -19 16 -13 4 -18 12 -14 23 4 13 2 12 -10 -3 -15 -18 -16 -18 -17 -2
0 9 -7 17 -16 17 -9 0 -12 5 -8 13 5 8 2 7 -9 -2 -15 -12 -17 -12 -11 4 5 13
4 16 -5 11 -7 -5 -18 0 -27 10 -9 11 -12 13 -8 5 4 -8 3 -12 -2 -10 -5 3 -21
11 -36 18 -15 8 -25 17 -23 21 3 4 -7 8 -20 8 -30 0 -57 20 -48 36 4 6 -1 5
-10 -3 -15 -11 -17 -11 -17 2 0 11 -6 13 -22 9 -15 -4 -19 -2 -13 7 6 10 3 11
-15 1 -18 -10 -21 -9 -15 1 6 9 3 11 -8 6 -11 -4 -14 -2 -10 9 3 7 0 14 -6 14
-6 0 -11 -5 -11 -10 0 -6 -6 -5 -14 2 -8 7 -11 18 -8 23 2 6 -1 4 -9 -2 -16
-15 -33 -17 -24 -3 3 6 -3 10 -14 10 -12 0 -21 6 -21 13 0 9 -3 8 -9 -2 -7
-11 -11 -9 -20 8 -7 12 -16 19 -22 15 -5 -3 -16 0 -24 6 -12 10 -15 9 -16 -6
0 -16 -2 -16 -9 4 -5 12 -15 22 -22 22 -9 0 -9 -3 2 -10 8 -5 10 -10 4 -10 -6
0 -17 7 -24 15 -7 9 -19 14 -27 11 -7 -3 -13 0 -13 6 0 7 -5 6 -15 -2 -12 -10
-15 -9 -15 6 0 16 -2 17 -10 4 -8 -12 -10 -12 -11 5 l0 20 -9 -20 c-5 -11 -9
-14 -9 -7 -1 6 -7 12 -15 12 -8 0 -17 -6 -19 -12 -3 -8 -6 -6 -6 5 -1 20 -27
23 -34 5 -3 -7 -6 -2 -7 12 -1 14 -4 19 -7 13 -2 -7 -11 -13 -19 -13 -9 0 -12
5 -8 12 4 7 3 8 -5 4 -6 -4 -24 -1 -40 7 -27 13 -29 13 -24 -2 6 -14 3 -13
-14 2 -14 12 -23 15 -28 7 -9 -14 -27 -2 -19 13 3 7 -1 4 -9 -5 -16 -20 -28
-14 -21 10 5 14 4 14 -6 -1 -8 -13 -16 -15 -29 -7 -10 5 -21 6 -25 3 -3 -3 -6
0 -6 7 0 11 -3 11 -12 2 -7 -7 -17 -12 -23 -12 -5 0 -3 5 5 10 11 8 0 9 -37 7
-41 -2 -53 0 -56 12 -4 12 -5 11 -6 -3 -1 -16 -3 -17 -18 -5 -9 8 -14 9 -10 3
3 -6 0 -11 -8 -11 -8 0 -12 4 -10 8 8 11 -42 17 -60 6 -13 -7 -16 -6 -11 2 4
6 4 11 -1 12 -4 0 -18 2 -30 3 -13 2 -23 -2 -24 -8 0 -6 -4 -2 -9 9 -7 17 -9
17 -9 3z m-1656 -448 c-3 -5 -12 -10 -18 -10 -7 0 -6 4 3 10 19 12 23 12 15 0z
m79 -101 c-3 -5 -10 -7 -15 -3 -5 3 -7 10 -3 15 3 5 10 7 15 3 5 -3 7 -10 3
-15z m-500 -204 c-4 -8 -11 -15 -16 -15 -6 0 -5 6 2 15 7 8 14 15 16 15 2 0 1
-7 -2 -15z m4276 -4009 c0 -2 -7 -7 -16 -10 -8 -3 -12 -2 -9 4 6 10 25 14 25
6z m-20 -30 c0 -3 -4 -8 -10 -11 -5 -3 -10 -1 -10 4 0 6 5 11 10 11 6 0 10 -2
10 -4z m-4500 -66 c0 -5 -5 -10 -11 -10 -5 0 -7 5 -4 10 3 6 8 10 11 10 2 0 4
-4 4 -10z m-92 -40 c7 -11 11 -20 9 -20 -2 0 -12 9 -22 20 -10 11 -14 20 -9
20 5 0 15 -9 22 -20z m127 -20 c3 -5 1 -10 -4 -10 -6 0 -11 5 -11 10 0 6 2 10
4 10 3 0 8 -4 11 -10z m4365 0 c0 -5 -5 -10 -11 -10 -5 0 -7 5 -4 10 3 6 8 10
11 10 2 0 4 -4 4 -10z m-4303 -114 c0 -15 -21 -16 -34 -1 -4 4 -3 5 4 1 6 -3
14 -2 18 4 8 14 12 13 12 -4z m4233 -20 c0 -3 -4 -8 -10 -11 -5 -3 -10 -1 -10
4 0 6 5 11 10 11 6 0 10 -2 10 -4z m-4209 -49 l-24 -22 19 27 c10 14 21 24 23
22 3 -3 -6 -15 -18 -27z m4249 29 c0 -2 -7 -9 -15 -16 -13 -11 -14 -10 -9 4 5
14 24 23 24 12z m-4173 -101 c0 -8 -4 -12 -9 -9 -5 3 -6 10 -3 15 9 13 12 11
12 -6z m58 -1 c0 -5 4 -14 8 -21 4 -7 1 -10 -10 -9 -10 2 -18 7 -18 12 0 5 -4
14 -8 21 -4 7 -1 10 10 9 10 -2 18 -7 18 -12z"/>
<path d="M4210 5896 c0 -2 8 -10 18 -17 15 -13 16 -12 3 4 -13 16 -21 21 -21
13z"/>
<path d="M4851 5554 c0 -11 3 -14 6 -6 3 7 2 16 -1 19 -3 4 -6 -2 -5 -13z"/>
<path d="M5268 5403 c7 -3 16 -2 19 1 4 3 -2 6 -13 5 -11 0 -14 -3 -6 -6z"/>
<path d="M801 5027 c-13 -21 -12 -21 5 -5 10 10 16 20 13 22 -3 3 -11 -5 -18
-17z"/>
<path d="M946 4954 c-5 -14 -4 -15 9 -4 17 14 19 20 6 20 -5 0 -12 -7 -15 -16z"/>
<path d="M1820 3986 c-160 -43 -286 -120 -415 -252 -165 -172 -238 -342 -239
-559 -1 -166 14 -235 81 -370 63 -127 161 -238 298 -340 152 -112 320 -162
510 -152 209 11 388 98 558 271 249 254 314 600 172 910 -75 163 -255 347
-421 430 -122 60 -195 78 -334 81 -104 3 -139 0 -210 -19z m315 -171 c195 -46
385 -205 475 -396 137 -294 27 -626 -276 -828 -103 -69 -194 -96 -324 -96
-130 1 -220 27 -324 96 -202 133 -324 330 -332 539 -7 191 54 341 202 492 166
169 380 241 579 193z"/>
<path d="M3043 3996 c-17 -8 -36 -23 -42 -35 -8 -13 -11 -257 -11 -786 l0
-767 29 -29 c41 -40 91 -40 132 0 l29 29 0 205 0 204 53 11 c85 17 243 9 307
-16 82 -32 116 -56 154 -109 44 -60 65 -128 72 -223 6 -83 25 -119 68 -134 37
-14 76 3 104 44 22 32 24 42 18 120 -14 224 -118 374 -300 434 -15 5 -7 14 40
50 103 75 156 143 194 243 42 113 35 285 -15 400 -65 146 -208 268 -386 327
-101 33 -124 37 -279 42 -104 3 -142 1 -167 -10z m355 -191 c219 -50 335 -195
329 -410 -3 -102 -29 -172 -88 -240 -73 -83 -205 -138 -362 -150 l-87 -7 -1
39 c0 21 -2 208 -5 416 l-4 379 77 -7 c43 -3 106 -13 141 -20z"/>
<path d="M4768 4000 c-54 -9 -135 -34 -188 -57 -73 -32 -199 -125 -266 -195
-158 -167 -226 -328 -233 -550 l-3 -98 451 0 c248 0 451 -3 451 -7 0 -17 -22
-91 -42 -143 -41 -107 -159 -257 -253 -321 -75 -50 -171 -90 -255 -103 -14 -3
-87 -5 -163 -5 l-139 -1 -29 -29 c-40 -40 -39 -82 1 -123 l31 -30 182 4 c163
4 190 7 258 31 129 44 228 107 332 213 132 135 216 284 253 446 2 10 6 28 9
41 3 12 7 64 9 115 l4 92 -454 0 c-260 0 -454 4 -454 9 0 5 9 40 21 77 42 138
144 273 271 357 125 83 221 107 426 107 l144 0 29 29 c20 20 29 39 29 61 0 22
-9 41 -29 61 l-29 29 -159 -1 c-87 -1 -179 -5 -205 -9z"/>
<path d="M5590 1388 c0 -4 4 -8 9 -8 6 0 12 4 15 8 3 5 -1 9 -9 9 -8 0 -15 -4
-15 -9z"/>
<path d="M905 1269 c-4 -6 -5 -12 -2 -15 2 -3 7 2 10 11 7 17 1 20 -8 4z"/>
<path d="M5396 1153 c-6 -14 -5 -15 5 -6 7 7 10 15 7 18 -3 3 -9 -2 -12 -12z"/>
<path d="M5189 1098 c-1 -7 -1 -17 0 -22 1 -5 -5 -6 -14 -2 -10 3 -13 2 -10
-5 4 -5 1 -16 -5 -24 -12 -15 -4 -20 23 -16 4 1 5 -10 3 -24 -3 -15 -1 -23 5
-20 5 4 7 11 4 16 -4 5 -2 9 4 9 5 0 11 -3 14 -7 2 -5 2 -3 1 4 -2 7 1 15 6
18 6 4 10 1 10 -4 0 -6 5 -11 10 -11 6 0 9 3 9 8 -3 20 2 32 13 26 7 -5 8 -3
3 6 -6 10 -4 12 8 7 11 -4 14 -2 10 9 -4 10 -9 12 -16 5 -5 -5 -16 -7 -24 -4
-12 5 -14 1 -9 -18 7 -22 6 -23 -5 -4 -7 11 -13 29 -14 39 -2 23 -24 35 -26
14z m25 -44 c10 -25 -4 -37 -20 -17 -10 13 -13 14 -14 4 0 -8 -3 -11 -6 -8 -8
7 14 37 26 37 4 0 11 -7 14 -16z"/>
<path d="M1250 1080 c0 -5 5 -10 11 -10 5 0 7 5 4 10 -3 6 -8 10 -11 10 -2 0
-4 -4 -4 -10z"/>
<path d="M1295 1030 c-10 -11 -14 -20 -9 -20 5 0 15 9 22 20 7 11 11 20 9 20
-2 0 -12 -9 -22 -20z"/>
<path d="M5115 1030 c-3 -6 1 -7 9 -4 18 7 21 14 7 14 -6 0 -13 -4 -16 -10z"/>
<path d="M5120 1010 c-23 -6 -23 -7 -5 -12 11 -3 28 -9 38 -13 12 -5 17 -3 17
8 0 19 -18 25 -50 17z"/>
<path d="M5100 975 c10 -12 7 -14 -19 -10 -17 2 -31 0 -31 -5 0 -9 50 -8 67 3
6 4 13 1 16 -5 2 -7 8 -9 13 -5 10 9 -16 28 -28 21 -4 -3 -8 0 -8 5 0 6 -5 11
-11 11 -8 0 -8 -4 1 -15z"/>
<path d="M1306 964 c-4 -9 -4 -19 -1 -22 3 -3 5 0 5 7 0 7 4 9 10 6 6 -3 7 1
4 9 -8 20 -10 20 -18 0z"/>
<path d="M1273 955 c0 -8 4 -12 9 -9 5 3 6 10 3 15 -9 13 -12 11 -12 -6z"/>
<path d="M5170 959 c0 -5 5 -7 10 -4 6 3 10 8 10 11 0 2 -4 4 -10 4 -5 0 -10
-5 -10 -11z"/>
<path d="M1339 948 c-8 -27 -5 -36 9 -30 15 5 15 4 2 -14 -11 -15 -11 -16 0
-7 20 18 22 43 2 36 -10 -4 -13 -2 -8 5 4 7 5 12 2 12 -3 0 -6 -1 -7 -2z"/>
<path d="M5070 936 c0 -2 7 -9 15 -16 13 -11 14 -10 9 4 -5 14 -24 23 -24 12z"/>
<path d="M1380 905 c0 -2 6 -8 13 -14 10 -8 14 -7 14 2 0 8 -6 14 -14 14 -7 0
-13 -1 -13 -2z"/>
<path d="M1420 886 c0 -2 8 -10 18 -17 15 -13 16 -12 3 4 -13 16 -21 21 -21
13z"/>
<path d="M1486 798 c3 -5 10 -6 15 -3 13 9 11 12 -6 12 -8 0 -12 -4 -9 -9z"/>
</g>
</svg>
