<?xml version="1.0" standalone="no"?>
<!DOCTYPE svg PUBLIC "-//W3C//DTD SVG 20010904//EN"
 "http://www.w3.org/TR/2001/REC-SVG-20010904/DTD/svg10.dtd">
<svg version="1.0" xmlns="http://www.w3.org/2000/svg"
 width="640.000000pt" height="640.000000pt" viewBox="0 0 640.000000 640.000000"
 preserveAspectRatio="xMidYMid meet">
<metadata>
Created by potrace 1.11, written by Peter Selinger 2001-2013
</metadata>
<g transform="translate(0.000000,640.000000) scale(0.100000,-0.100000)"
fill="#000000" stroke="none">
<path d="M3085 6198 c-369 -12 -655 -71 -992 -204 -443 -175 -846 -464 -1170
-839 -348 -404 -585 -910 -684 -1460 -15 -86 -39 -385 -39 -495 0 -111 24
-410 39 -495 39 -211 101 -429 181 -629 69 -176 206 -420 328 -586 127 -173
341 -380 393 -380 35 0 42 -11 -172 287 -138 194 -187 266 -199 299 -6 15 -20
39 -31 55 -11 15 -47 83 -80 151 -33 68 -65 132 -71 143 -6 11 -42 111 -80
224 -59 177 -85 277 -128 506 -5 28 -14 136 -21 241 -10 152 -10 228 0 365 20
293 52 454 142 727 167 509 482 985 862 1304 142 119 274 216 338 248 24 12
51 29 60 36 24 22 242 127 365 177 193 79 379 132 589 167 33 6 85 15 115 20
211 36 532 31 800 -12 418 -66 731 -179 1087 -393 284 -170 542 -404 743 -674
322 -432 515 -900 585 -1421 18 -133 21 -549 5 -673 -56 -442 -177 -796 -404
-1189 -72 -125 -196 -308 -324 -477 -44 -59 -65 -102 -55 -112 17 -17 130 70
230 177 308 328 539 784 654 1289 12 50 25 119 30 155 4 36 13 99 19 140 13
96 14 570 0 675 -76 597 -287 1094 -664 1566 -87 109 -316 334 -433 425 -165
129 -194 148 -463 304 -150 88 -451 213 -598 250 -251 62 -306 71 -547 95 -88
8 -167 16 -175 18 -8 1 -114 -1 -235 -5z"/>
<path d="M1888 4000 c-178 -32 -308 -101 -452 -239 -128 -124 -205 -247 -248
-398 -32 -111 -32 -295 0 -406 41 -144 103 -248 221 -371 124 -128 247 -205
398 -248 111 -32 295 -32 406 0 151 43 274 120 398 248 118 123 180 227 221
371 32 111 32 295 0 406 -43 151 -120 274 -248 398 -122 117 -228 180 -366
219 -82 23 -255 34 -330 20z m228 -179 c207 -39 422 -223 512 -436 48 -117 54
-292 12 -415 -60 -178 -237 -367 -412 -437 -233 -94 -473 -36 -672 164 -163
162 -232 364 -197 569 44 251 289 504 536 554 57 11 164 12 221 1z"/>
<path d="M3043 3995 c-17 -7 -36 -22 -42 -34 -8 -13 -11 -257 -11 -785 l0
-765 24 -28 c32 -37 103 -40 138 -5 22 22 23 29 26 232 l3 209 37 8 c20 4 91
8 157 7 152 -1 214 -22 291 -98 63 -64 90 -131 102 -256 11 -102 24 -126 78
-136 43 -8 75 12 99 62 14 30 16 52 11 114 -11 138 -48 231 -123 311 -55 59
-102 89 -160 104 l-44 11 53 37 c191 131 270 327 223 549 -18 87 -42 139 -96
211 -68 92 -193 177 -324 222 -123 42 -375 59 -442 30z m360 -190 c216 -56
327 -190 327 -396 0 -235 -168 -383 -459 -406 l-78 -6 -6 114 c-4 63 -7 251
-7 418 l0 304 83 -6 c45 -4 108 -14 140 -22z"/>
<path d="M4778 4000 c-268 -47 -503 -229 -622 -481 -49 -103 -66 -175 -73
-306 l-6 -113 452 0 c399 0 451 -2 451 -15 0 -9 -12 -52 -27 -96 -62 -189
-233 -370 -413 -438 -57 -21 -87 -25 -243 -30 l-179 -6 -24 -28 c-31 -36 -31
-78 0 -114 l24 -28 179 0 c158 0 186 3 253 24 144 45 253 114 365 232 162 171
244 354 259 582 l6 97 -456 0 -456 0 7 37 c38 205 232 416 445 485 52 16 101
22 242 27 167 6 179 7 200 29 31 31 31 93 0 124 -21 22 -31 23 -180 25 -86 1
-178 -2 -204 -7z"/>
</g>
</svg>
